<svg xmlns="http://www.w3.org/2000/svg" viewBox="0 0 100 100" enable-background="new 0 0 100 100"><path fill="#4f1c4e" d="m50 .001c-27.615 0-50 22.384-50 50 0 27.614 22.385 50 50 50s50-22.386 50-50c0-27.14-21.842-50-50-50"/><path fill="#411742" d="m59.889 79.77l-7.379-18.07c0 0-6.755-11.343-6.943-11.701-.154-.291-11.921-2.125-16.334-2.803l3.642-23.438-32.474 32.475c2.682 21.546 19.06 38.83 40.16 42.864l19.33-19.33"/><path fill="#d93e1d" d="m75.12 45c0 15.53-9.59 38.12-25.12 38.12-15.531 0-25.12-22.591-25.12-38.12 0-15.531 9.59-28.12 25.12-28.12 15.529 0 25.12 12.589 25.12 28.12"/><path fill="#bf0000" d="m75.12 45c0-15.531-9.59-28.12-25.12-28.12v66.24c15.529 0 25.12-22.591 25.12-38.12"/><path opacity=".4" fill="#380707" d="m75.1 46.16c.012-.383.021-.762.021-1.135l-5.496 2.812.01-.038-.443-.154c-6.338-2.201-6.375-10.698-6.104-14.216l4.717-8.956c-.238-.259-.48-.513-.73-.761l-3.998 7.593h-.312c-9.217-.016-11.705-4.25-12.261-5.584v-8.824c-.168-.003-.332-.012-.5-.012-.17 0-.333.009-.5.012v8.481c-.012.039-.033.1-.064.183l-.049.012c.003.01.014.042.02.068-.491 1.241-2.898 5.649-12.297 5.665h-.262l-3.973-7.542c-.248.249-.491.504-.728.764l4.631 8.792c.282 3.447.315 12.1-6.097 14.326l-.443.154.002.01-5.361-2.744c0 .374.01.753.021 1.134l5.703 2.918 4.419 15.92-4.756 2.295c.147.299.296.598.449.894l4.722-2.276.158.021c.315.044 7.722 1.13 8.704 7.654l-1.967 7.528c.302.16.604.32.913.463l1.989-7.615c.755-.467 5.495-3.152 9.499.186l1.947 7.459c.311-.141.613-.297.916-.457l-2-7.668c1.047-6.427 8.369-7.508 8.682-7.55l.197-.026 4.795 2.312c.154-.296.301-.594.449-.895l-4.863-2.344 4.406-15.872 5.838-2.987m-6.676 2.265l-.01.03-14.193 7.263c-.402-.832-1.037-1.521-1.824-1.992l9.584-18.2c-.024 4.206.9 10.663 6.443 12.897m-14.725 9.321c0 2.039-1.658 3.699-3.697 3.699-2.04 0-3.699-1.66-3.699-3.699 0-2.037 1.659-3.697 3.699-3.697 2.039 0 3.697 1.66 3.697 3.697m-16.01-25.447c7.216-.15 10.429-2.87 11.814-4.808v25.557h.499.5v-25.378c1.453 1.921 4.691 4.483 11.685 4.628-.029.227-.061.531-.09.866l-10.613 20.15c-.469-.158-.961-.264-1.482-.264-.583 0-1.133.119-1.648.314l.09-.047-10.674-20.265c-.028-.288-.057-.551-.081-.752m-6.237 16.13c5.586-2.252 6.48-8.792 6.441-12.993l9.653 18.328c-.771.478-1.39 1.166-1.78 1.99l-14.314-7.325m.363 1.311l13.615 6.965c-.077.338-.127.685-.127 1.045 0 .754.195 1.457.512 2.09l-9.875 4.762-4.125-14.862m5.101 15.5l9.448-4.555c.305.378.654.717 1.061.986l-2.609 9.988c-1.554-4.223-5.811-5.861-7.9-6.419m8.664 7.455l2.759-10.564c.52.198 1.076.319 1.664.319.561 0 1.091-.115 1.591-.297l2.752 10.537c-3.4-2.055-7.06-.812-8.766.005m9.508-1.116l-2.576-9.871c.422-.269.789-.608 1.107-.995l9.371 4.52c-2.064.545-6.316 2.16-7.902 6.346m8.853-6.999l-9.77-4.711c.326-.64.527-1.353.527-2.119 0-.372-.055-.73-.137-1.079l13.488-6.902-4.108 14.811"/><path fill="#192018" d="m47.999 57.3l-16.929-12.582-3.01-4.282c0 0-5.085 23.574 8.498 25.04 0 0 9.235.392 11.442-8.173"/><path fill="#fff" d="m31.404 51.741l11.844 6.224c0 0-.803 4.938-6.29 4.409-5.486-.527-5.821-9.695-5.554-10.633"/><path fill="#192018" d="m52 57.3l16.928-12.582 3.01-4.282c0 0 5.084 23.574-8.498 25.04-.001 0-9.235.392-11.442-8.173"/><path fill="#fff" d="m68.6 51.741l-11.844 6.224c0 0 .803 4.938 6.289 4.409 5.486-.527 5.822-9.695 5.555-10.633"/></svg>